<?xml version="1.0" encoding="UTF-8" standalone="no"?>
<!-- Created with Inkscape (http://www.inkscape.org/) -->

<svg
   width="16"
   height="16"
   viewBox="0 0 16 16"
   version="1.1"
   id="svg1"
   inkscape:version="1.3 (0e150ed6c4, 2023-07-21)"
   sodipodi:docname="mode_environment.svg"
   inkscape:export-filename="mode_environment.png"
   inkscape:export-xdpi="3788.7996"
   inkscape:export-ydpi="3788.7996"
   xmlns:inkscape="http://www.inkscape.org/namespaces/inkscape"
   xmlns:sodipodi="http://sodipodi.sourceforge.net/DTD/sodipodi-0.dtd"
   xmlns="http://www.w3.org/2000/svg"
   xmlns:svg="http://www.w3.org/2000/svg">
  <sodipodi:namedview
     id="namedview1"
     pagecolor="#505050"
     bordercolor="#eeeeee"
     borderopacity="1"
     inkscape:showpageshadow="0"
     inkscape:pageopacity="0"
     inkscape:pagecheckerboard="0"
     inkscape:deskcolor="#505050"
     inkscape:document-units="px"
     inkscape:zoom="25.4375"
     inkscape:cx="7.3120393"
     inkscape:cy="4.1277641"
     inkscape:window-width="1920"
     inkscape:window-height="1010"
     inkscape:window-x="-6"
     inkscape:window-y="-6"
     inkscape:window-maximized="1"
     inkscape:current-layer="layer1" />
  <defs
     id="defs1" />
  <g
     inkscape:label="Layer 1"
     inkscape:groupmode="layer"
     id="layer1">
    <g
       id="g4">
      <path
         style="fill:#8c8c8c;stroke:#000000;stroke-width:0;stroke-opacity:0.907514;paint-order:stroke fill markers"
         d="M 7.096881,14.441009 C 7.4113773,11.060173 6.5465124,8.6228264 6.0747679,8.0331458 5.6030235,7.4434652 5.9961439,6.8930966 5.9961439,6.8930966 l 0.7862408,-0.039312 0.1965602,1.3366093 0.2751842,0.9041769 c 0,0 0.1965602,0.1179362 0.4717445,-0.1965602 C 8.0010579,8.5835143 8.1976181,8.0724578 8.1976181,8.0724578 L 8.118994,7.246905 8.3941783,7.0110328 8.5121144,7.7972735 c 0,0 0.1179361,0.1179362 -0.078624,0.4717445 C 8.2369301,8.6228264 8.3155542,8.8193866 8.079682,8.9373227 7.8438097,9.0552588 8.04037,9.1338829 8.04037,9.1338829 c 0,0 0.2751843,0.078624 0.4717445,-0.039312 C 8.7086746,8.9766347 8.9838589,8.6621384 8.9838589,8.6621384 L 9.141107,8.1117699 9.2197311,7.5614013 V 6.4606642 c 0,0 0.3144963,0 0.5110565,0.039312 0.19656,0.039312 0.5110574,0.1572482 0.5110574,0.1572482 0,0 -0.3538094,0.5110565 -0.4324334,0.7862408 -0.07862,0.2751843 0.03931,0.7469287 -0.2751842,1.1400491 C 9.2197311,8.9766347 9.0231709,9.1731949 9.0231709,9.1731949 L 8.9052348,9.6842514 c 0,0 -0.1179361,0.2358722 -0.1572482,0.6683046 -0.039312,0.432433 -0.1179361,0.864865 -0.078624,1.415234 0.039312,0.550368 -0.039312,0.471744 -0.078624,1.415233 -0.039312,0.943489 0,1.179361 -0.039312,1.375922 -0.039312,0.19656 -0.1965602,0.235872 -0.1965602,0.235872"
         id="path1"
         sodipodi:nodetypes="csccccsccccsscsccccscssccssssc" />
      <ellipse
         style="fill:#8c8c8c;stroke:#000000;stroke-width:0;stroke-opacity:0.907514;paint-order:stroke fill markers"
         id="path2"
         cx="7.2541294"
         cy="5.5957994"
         rx="3.3808353"
         ry="2.8697789" />
      <ellipse
         style="fill:#8c8c8c;stroke:#000000;stroke-width:0;stroke-opacity:0.907514;paint-order:stroke fill markers"
         id="path3"
         cx="9.7897558"
         cy="5.8709836"
         rx="2.3390663"
         ry="2.909091" />
      <ellipse
         style="fill:#8c8c8c;stroke:#000000;stroke-width:0;stroke-opacity:0.907514;paint-order:stroke fill markers"
         id="path4"
         cx="8.8659229"
         cy="3.2370768"
         rx="2.3980343"
         ry="1.4152334" />
    </g>
  </g>
</svg>
