<?xml version="1.0" encoding="UTF-8" standalone="no"?>
<!-- Created with Inkscape (http://www.inkscape.org/) -->

<svg
   width="16mm"
   height="16mm"
   viewBox="0 0 16 16"
   version="1.1"
   id="svg1"
   inkscape:version="1.3 (0e150ed6c4, 2023-07-21)"
   sodipodi:docname="mode_destruction.svg"
   inkscape:export-filename="mode_destruction.png"
   inkscape:export-xdpi="919.71753"
   inkscape:export-ydpi="919.71753"
   xmlns:inkscape="http://www.inkscape.org/namespaces/inkscape"
   xmlns:sodipodi="http://sodipodi.sourceforge.net/DTD/sodipodi-0.dtd"
   xmlns="http://www.w3.org/2000/svg"
   xmlns:svg="http://www.w3.org/2000/svg">
  <sodipodi:namedview
     id="namedview1"
     pagecolor="#505050"
     bordercolor="#eeeeee"
     borderopacity="1"
     inkscape:showpageshadow="0"
     inkscape:pageopacity="0"
     inkscape:pagecheckerboard="0"
     inkscape:deskcolor="#505050"
     inkscape:document-units="mm"
     inkscape:zoom="8.2041846"
     inkscape:cx="10.604344"
     inkscape:cy="34.372703"
     inkscape:window-width="1920"
     inkscape:window-height="1010"
     inkscape:window-x="-6"
     inkscape:window-y="-6"
     inkscape:window-maximized="1"
     inkscape:current-layer="svg1" />
  <defs
     id="defs1" />
  <g
     inkscape:label="Layer 1"
     inkscape:groupmode="layer"
     id="layer1" />
  <rect
     style="fill:#8c8c8c;fill-opacity:1;stroke:#000000;stroke-width:0;stroke-opacity:0.907514;paint-order:stroke fill markers"
     id="rect2"
     width="14.779545"
     height="13.938526"
     x="0.64911753"
     y="0.95984328"
     ry="1.9330387" />
  <path
     style="fill:#4c4c4c;fill-opacity:1;stroke:#000000;stroke-width:0;stroke-opacity:0.907514;paint-order:stroke fill markers"
     d="m 12.91638,0.93552417 -0.935935,1.25926313 -4.2212626,1.80293 c 0,0 0.4966201,1.0036931 -0.076408,1.3754313 C 7.1097518,5.7448881 7.3389603,5.8935831 7.3389603,5.8935831 L 8.064788,6.7485812 7.873781,8.1983593 7.4153637,8.458576 6.1929173,8.3470531 5.4670898,8.12401 5.0850745,7.4548805 4.8940675,6.0794492 4.7412609,4.5181494 c 0,0 -0.7258275,-1.2267363 -0.8786328,-1.3010845 C 3.7098227,3.1427206 2.3345697,2.2877192 2.3345697,2.2877192 L 2.4252983,0.96340206 2.1817644,0.98663762 2.0003072,1.0656322 1.7233459,2.2505481 2.1053611,3.1798927 2.8311886,3.328589 3.4424112,4.0348908 3.7862247,5.2244535 4.0154334,6.3024948 4.7412609,7.7894477 5.1996782,8.6816179 5.1232697,9.2764006 4.5884492,9.2392222 3.6334131,11.246607 l -1.0314394,0.96652 0.7640291,1.226737 -1.2988497,0.520433 0.2836318,0.922967 0.2309287,0.0021 -0.1325453,-0.590465 0.7640279,-0.371739 0.8022309,-0.446087 c 0,0 -0.2674103,-0.706301 -0.4202157,-0.743475 C 3.4424048,12.696406 3.0985925,12.250325 3.2513978,11.990107 3.4042044,11.729892 4.3592406,10.651851 4.3592406,10.651851 L 4.8558595,9.6481559 5.696292,9.3879393 5.6198836,9.0533758 7.0715386,8.9046807 8.3321867,9.0162035 9.2490212,8.9046807 c 0,0 0.6494255,0.8178234 0.7258288,0.9665196 0.076408,0.1486947 1.33705,3.6058597 1.33705,3.6058597 l 1.489857,0.148697 c 0,0 0.382015,0 0.534821,0.223042 0.152807,0.223043 0.840432,0.297391 0.840432,0.297391 l 0.564151,0.291011 0.03045,-0.02738 -0.480001,-0.932762 -0.611223,-0.185868 -0.305612,-0.371738 -1.069641,-0.03718 -0.611223,-0.260217 c 0,0 -0.611223,-0.29739 -0.611223,-0.557608 0,-0.260215 -0.07641,-1.524126 -0.229209,-1.635648 -0.1528,-0.111514 -0.534814,-0.7806416 -0.534814,-0.9293366 0,-0.148695 -0.305612,-1.0408677 -0.305612,-1.0408677 L 9.2108387,8.0496434 8.5614132,7.9009472 8.3322045,7.0831226 V 6.3768208 L 7.9501894,5.5589962 8.2940041,5.0757364 8.3322083,4.3694347 8.867029,3.9976965 c 0,0 0.4966175,-0.4089117 0.6494241,-0.4460864 0.1528054,-0.037178 1.6426629,-0.6691283 1.6426629,-0.6691283 l 1.642663,-0.3717387 -0.03821,-0.5947816 0.534821,-0.4089113 0.343812,-0.2973912 0.0048,-0.25092282 -0.200556,-0.0185868"
     id="path3"
     sodipodi:nodetypes="cccscccccccccscccccccccccccccccccccccsscccccccsccsccccccccssscccccccccsccccccc" />
  <path
     style="fill:#4c4c4c;fill-opacity:1;stroke:#000000;stroke-width:0;stroke-opacity:0.907514;paint-order:stroke fill markers"
     d="m 14.93348,11.204749 c 0,0 -0.252098,-0.150781 -0.36014,-0.301558 -0.108045,-0.150781 -0.54021,-1.1308513 -0.54021,-1.1308513 0,0 -0.504198,-0.4900343 -0.648254,-0.5277291 C 13.24082,9.2069171 13.420887,9.13153 13.096763,9.0184408 12.772639,8.9053602 12.268441,8.7168816 12.124385,8.5284065 11.980329,8.3399327 11.980329,8.076067 11.836274,7.6614233 11.692218,7.2467772 11.448281,6.9849992 11.520311,6.5703531 c 0.07203,-0.4146435 0.315963,-0.4167288 0.315963,-0.8313724 0,-0.4146436 0.108044,-0.7162041 0.216083,-0.9800687 0.108044,-0.2638645 0.216084,-0.4523395 0.432168,-0.5654238 0.216085,-0.1130806 0.360141,-0.2261711 0.612238,-0.37695 0.252099,-0.1507803 1.15245,-0.3392542 1.15245,-0.3392542 l 1.195239,0.049101 -0.0068,0.5246234 -0.445683,0.3603393 -0.612237,-0.301558 c 0,0 -0.360142,0.037694 -0.504198,0.037694 -0.144056,0 0.0135,-0.067083 -0.274606,0.045997 -0.288111,0.1130807 -0.288111,0.075388 -0.504196,0.2638646 -0.216086,0.188475 -0.324126,0.226171 -0.396154,0.4523408 -0.07204,0.2261686 0,0.4523396 -0.108044,0.6785094 -0.108045,0.2261685 -0.252097,0.4523396 -0.18007,0.7538977 0.07203,0.3015604 0.03601,0.3015604 0.07203,0.7915948 0.03601,0.4900331 0.432168,0.9800686 0.504197,1.281628 0.07204,0.3015593 0.396153,0.6031186 0.396153,0.6031186 l 0.756294,0.2638646 c 0,0 0.180071,0.1507803 0.396155,0.5277291 0.216084,0.3769507 0.324127,0.5277307 0.360141,0.6785097 0.03601,0.150781 0.216084,0.339255 0.216084,0.339255 l 0.252099,0.226169 h 0.07204 v 0.490035 l -0.324126,-0.03769 z"
     id="path5"
     sodipodi:nodetypes="cscssssssssscccccssssssssccsscccccc" />
  <path
     style="fill:#4c4c4c;fill-opacity:1;stroke:#000000;stroke-width:0;stroke-opacity:0.907514;paint-order:stroke fill markers"
     d="m 8.685568,7.9660222 0.9072847,-0.6970078 0.4202153,-0.2973913 0.420217,-0.148695 0.305611,-0.1115229 1.002788,0.529726 -1.270198,0.7341837 c 0,0 -0.458418,0.4089116 -0.6494247,0.4460864 -0.191007,0.037178 -0.2292086,0.037178 -0.4202156,0.037178 -0.1910083,0 -0.3438137,-0.074345 -0.3056119,-0.2230431 C 9.1344379,8.0868414 8.685568,7.9660259 8.685568,7.9660259 Z"
     id="path6"
     sodipodi:nodetypes="cccccccsssc" />
  <path
     style="fill:#4c4c4c;fill-opacity:1;stroke:#000000;stroke-width:0;stroke-opacity:0.907514;paint-order:stroke fill markers"
     d="M 5.9637151,14.926823 6.154722,13.700086 c 0,0 0.2674102,-0.817825 0.382014,-1.040867 0.1145998,-0.223044 0.9550374,-1.338257 1.2224464,-1.44978 0.2674115,-0.111523 0.6876271,-0.520433 0.6876271,-0.520433 0,0 0.1528053,0.334564 -0.038204,0.669128 -0.191007,0.334566 -0.4657661,0.618426 -0.8095796,1.027338 -0.3438136,0.408911 -0.030846,0.571137 -0.2600614,0.79418 -0.2292088,0.223043 -0.1528054,0.334563 -0.3056108,0.631955 -0.1528065,0.297391 0.076408,0.520434 0.038204,0.78065 -0.038204,0.260217 0.3438124,0.483261 0.3438124,0.483261"
     id="path7"
     sodipodi:nodetypes="ccsscsssssc" />
  <path
     style="fill:#4c4c4c;fill-opacity:1;stroke:#000000;stroke-width:0;stroke-opacity:0.907514;paint-order:stroke fill markers"
     d="M 7.797384,11.135092 7.2625635,10.168572 6.9951532,9.6109641 7.1479597,9.1648789 6.8326808,8.8453253 7.4535717,8.793146 l 0.5348205,0.5947802 0.1145999,0.4460862 0.038204,0.7806516 0.319714,0.0978 -0.7901153,0.676668"
     id="path8"
     sodipodi:nodetypes="ccccccccccc" />
</svg>
